<svg xmlns="http://www.w3.org/2000/svg" width="25" height="25" viewBox="0 0 25 25" fill="none"
  aria-hidden="true">
  <path
    d="M0.429688 12.5418C0.432125 11.7919 0.492823 11.117 0.878747 10.7311L10.7565 0.853359C11.3422 0.26763 12.2918 0.26763 12.8776 0.853359C13.4633 1.43909 13.4633 2.38874 12.8776 2.97447L4.81011 11.0419H22.9311C23.7595 11.0419 24.431 11.7134 24.431 12.5418C24.431 13.3701 23.7595 14.0416 22.9311 14.0416H5.06554L12.8776 21.8537C13.4633 22.4394 13.4633 23.389 12.8776 23.9748C12.2918 24.5605 11.3422 24.5605 10.7565 23.9748L0.878747 14.0971C0.527542 13.7459 0.432125 13.1698 0.429688 12.5418Z"
    fill="currentColor" />
</svg>