<svg xmlns="http://www.w3.org/2000/svg" width="25" height="24" viewBox="0 0 25 24" fill="none"
  aria-hidden="true">
  <path
    d="M5.05411 5.09228C6.42721 3.71918 8.17664 2.78409 10.0812 2.40526C11.9857 2.02642 13.9598 2.22085 15.7539 2.96396C17.5479 3.70708 19.0813 4.9655 20.1601 6.58009C21.239 8.19468 21.8148 10.0929 21.8148 12.0348C21.8148 13.9766 21.239 15.8749 20.1601 17.4895C19.0813 19.1041 17.5479 20.3625 15.7539 21.1056C13.9598 21.8487 11.9857 22.0431 10.0812 21.6643C8.17664 21.2855 6.42721 20.3504 5.05411 18.9773C3.22214 17.1311 2.19414 14.6356 2.19414 12.0348C2.19414 9.43391 3.22214 6.93847 5.05411 5.09228ZM3.51133 3.5495C1.84146 5.2331 0.707818 7.37369 0.25353 9.70105C-0.200758 12.0284 0.0446706 14.4382 0.958833 16.6262C1.873 18.8142 3.41491 20.6823 5.38991 21.9946C7.36492 23.307 9.68447 24.0048 12.0557 24C14.427 23.9951 16.7437 23.2879 18.7133 21.9674C20.683 20.647 22.2172 18.7726 23.1225 16.5809C24.0277 14.3892 24.2633 11.9785 23.7995 9.65298C23.3357 7.3275 22.1933 5.19155 20.5166 3.51479C19.3994 2.39755 18.0725 1.51194 16.6122 0.908785C15.1518 0.305628 13.5868 -0.00320074 12.0068 2.50112e-05C10.4268 0.00324958 8.86295 0.318465 7.40508 0.927578C5.94721 1.53669 4.62398 2.42771 3.51133 3.5495Z"
    fill="currentColor" />
  <path
    d="M15.3136 7.4373L11.9002 10.8507L8.48679 7.4373L7.33742 8.58667L10.7508 12.0001L7.33357 15.4173L8.48293 16.5667L11.9002 13.1494L15.3136 16.5628L16.463 15.4135L13.0496 12.0001L16.463 8.58667L15.3136 7.4373Z"
    fill="currentColor" />
</svg>