<svg xmlns="http://www.w3.org/2000/svg" width="14" height="14" viewBox="0 0 24 24" fill="none"
  aria-hidden="true">
  <path d="M15.0599 8.54799H12.779V18.0139H15.0599V8.54799Z" fill="currentColor" />
  <path d="M10.3624 8.54799H8.08155V18.0139H10.3624V8.54799Z" fill="currentColor" />
  <path
    d="M22.3909 3.71506C22.3864 3.48105 22.3077 3.2545 22.1661 3.06814C22.0243 2.88178 21.8272 2.74526 21.603 2.67826C21.5022 2.63626 21.3955 2.61003 21.2867 2.6005H15.2059C14.9757 1.84785 14.5099 1.18894 13.8772 0.720806C13.2445 0.252669 12.4782 0 11.6911 0C10.9041 0 10.1378 0.252669 9.50509 0.720806C8.87235 1.18894 8.40658 1.84785 8.17635 2.6005H2.09562C1.99546 2.60253 1.89604 2.61821 1.80013 2.64717H1.77421C1.53688 2.72059 1.33144 2.87223 1.19137 3.0774C1.0513 3.28257 0.984867 3.52913 1.0029 3.7769C1.02095 4.02465 1.1224 4.25899 1.29071 4.4417C1.45902 4.62441 1.68428 4.7447 1.92973 4.78296L3.14797 21.4858C3.16655 22.1361 3.42903 22.7556 3.88328 23.2214C4.33751 23.6871 4.95032 23.9652 5.59998 24H17.7772C18.4278 23.9664 19.0418 23.689 19.4971 23.2231C19.9525 22.7573 20.2158 22.1369 20.2343 21.4858L21.4475 4.79853C21.7089 4.76223 21.9486 4.63255 22.1221 4.4334C22.2954 4.23427 22.3909 3.97913 22.3909 3.71506ZM11.6911 2.0821C11.9133 2.08214 12.1331 2.12822 12.3364 2.21745C12.5399 2.30667 12.7226 2.4371 12.8731 2.6005H10.5091C10.6593 2.4366 10.8419 2.30583 11.0455 2.21655C11.249 2.12729 11.469 2.0815 11.6911 2.0821ZM17.7772 21.9264H5.59998C5.46003 21.9264 5.2423 21.6982 5.21638 21.3355L4.01368 4.81925H19.3686L18.166 21.3355C18.1401 21.6982 17.9222 21.9264 17.7772 21.9264Z"
    fill="currentColor" />
</svg>