<svg xmlns="http://www.w3.org/2000/svg" width="16" height="16" viewBox="0 0 25 24" fill="none"
  aria-hidden="true">
  <path
    d="M11.9822 2.18192C13.924 2.18192 15.8223 2.75774 17.4369 3.83658C19.0514 4.91542 20.3099 6.44881 21.053 8.24284C21.7961 10.0369 21.9905 12.011 21.6117 13.9155C21.2329 15.8201 20.2978 17.5695 18.9247 18.9426C17.5516 20.3157 15.8021 21.2508 13.8976 21.6296C11.9931 22.0085 10.0189 21.814 8.22491 21.0709C6.43087 20.3278 4.89748 19.0694 3.81864 17.4548C2.73981 15.8402 2.16398 13.942 2.16398 12.0001C2.17404 9.39925 3.21168 6.9078 5.05077 5.06871C6.88986 3.22962 9.38131 2.19197 11.9822 2.18192ZM11.9822 0.000100422C9.6109 0.00980112 7.29567 0.721825 5.32875 2.04629C3.36183 3.37075 1.8314 5.24826 0.930673 7.44181C0.0299441 9.63536 -0.200703 12.0466 0.267849 14.3711C0.7364 16.6957 1.88314 18.8293 3.56331 20.5026C5.24348 22.1759 7.38174 23.3139 9.70817 23.773C12.0346 24.232 14.4449 23.9916 16.6347 23.0819C18.8246 22.1722 20.6958 20.6341 22.0122 18.6618C23.3287 16.6895 24.0312 14.3714 24.0313 12.0001C24.0313 10.4201 23.7193 8.85565 23.1131 7.39653C22.507 5.93742 21.6187 4.61236 20.4992 3.49741C19.3797 2.38247 18.051 1.49958 16.5894 0.899417C15.1279 0.299256 13.5621 -0.00636322 11.9822 0.000100422Z"
    fill="currentColor" />
  <path
    d="M17.5785 11.0946H12.7513V6.26737H11.1258V11.0946H6.29307V12.7201H11.1258V17.5474H12.7513V12.7201H17.5785V11.0946Z"
    fill="currentColor" />
</svg>