<svg xmlns="http://www.w3.org/2000/svg" width="24" height="24" viewBox="0 0 24 24" fill="none"
  aria-hidden="true">
  <path fill-rule="evenodd" clip-rule="evenodd"
    d="M13.1281 1.30601C13.4806 1.5115 13.7728 1.80952 13.9742 2.16913L23.7 19.5296C24.3231 20.6419 23.9443 22.0588 22.8538 22.6944C22.5102 22.8947 22.1213 23 21.7255 23H2.27406C1.01813 23 0 21.9615 0 20.6805C0 20.2768 0.103277 19.8801 0.299623 19.5296L10.0254 2.16913C10.6485 1.05686 12.0376 0.670434 13.1281 1.30601ZM11.9998 3.31995L2.27406 20.6805H21.7255L11.9998 3.31995ZM11.9388 15.7871C12.751 15.7871 13.3601 16.3995 13.3601 17.2345C13.3601 18.0696 12.751 18.6819 11.9388 18.6819C11.1082 18.6819 10.5175 18.0696 10.5175 17.216C10.5175 16.3995 11.1266 15.7871 11.9388 15.7871ZM13.0758 6.79887V13.7575H10.8018V6.79887H13.0758Z"
    fill="currentColor" />
</svg>